Coordinates
version=1
nRows=27
nColumns=38
inDegrees=no

Units are S.I. units (second, meters, Newtons, ...)
If the header above contains a line with 'inDegrees', this indicates whether rotational values are in degrees (yes) or radians (no).

endheader
time	pelvis_tilt	pelvis_list	pelvis_rotation	pelvis_tx	pelvis_ty	pelvis_tz	hip_flexion_r	hip_adduction_r	hip_rotation_r	knee_angle_r	ankle_angle_r	subtalar_angle_r	mtp_angle_r	hip_flexion_l	hip_adduction_l	hip_rotation_l	knee_angle_l	ankle_angle_l	subtalar_angle_l	mtp_angle_l	lumbar_extension	lumbar_bending	lumbar_rotation	arm_flex_r	arm_add_r	arm_rot_r	elbow_flex_r	pro_sup_r	wrist_flex_r	wrist_dev_r	arm_flex_l	arm_add_l	arm_rot_l	elbow_flex_l	pro_sup_l	wrist_flex_l	wrist_dev_l
0	-2.9555	1.2732	1.36936	0.728295	2.00422	1.00485	0.0855124	0.0104505	-0.0605541	0.616771	-0.465515	0	0	0.640188	-0.0811894	-0.193997	0.395385	-0.159762	0	0	0.174987	0.00603141	0.0987909	-0.0780425	-0.275382	0.228071	0.624762	1.5708	0	0	-0.198044	-0.299214	0.499976	0.585759	0.978361	0	0
0.01	-3.06751	1.28956	1.47968	0.731241	1.99314	1.0101	0.100904	-0.0365749	-0.0599573	0.664743	-0.521043	0	0	0.604251	-0.0303863	-0.120471	0.369205	-0.16503	0	0	0.159161	-0.0329405	0.103274	-0.0563397	-0.25809	0.239257	0.57302	1.5708	0	0	-0.172693	-0.302006	0.526184	0.565085	0.970252	0	0
0.02	-3.07487	1.26519	1.47989	0.731807	1.97945	1.00895	0.150115	-0.0391485	-0.0446119	0.705947	-0.577929	0	0	0.619053	-0.0310862	-0.114367	0.379315	-0.149927	0	0	0.196451	-0.0300467	0.107336	-0.069569	-0.254975	0.250431	0.56032	1.5708	0	0	-0.179026	-0.306385	0.540445	0.566845	0.966733	0	0
0.03	-3.07778	1.25132	1.47288	0.732094	1.96615	1.00887	0.189045	-0.0399915	-0.0285576	0.744253	-0.621721	0	0	0.620877	-0.0345269	-0.118464	0.387223	-0.134771	0	0	0.218134	-0.0261555	0.111578	-0.0764344	-0.252401	0.264369	0.547907	1.5708	0	0	-0.182779	-0.309072	0.546991	0.569149	0.968537	0	0
0.04	-2.98342	1.34531	1.35129	0.732684	1.95565	1.01832	0.0993097	-0.0193808	0.025327	0.741258	-0.657417	0	0	0.524781	-0.103571	-0.308235	0.456323	-0.129623	0	0	0.0829403	-0.00518479	0.137352	-0.0555033	-0.274803	0.28004	0.572263	1.5708	0	0	-0.137659	-0.297532	0.555609	0.567551	0.973495	0	0
0.05	-3.08147	1.26159	1.45599	0.732094	1.94098	1.01287	0.227749	-0.0427146	0.00034631	0.813092	-0.64874	0	0	0.57951	-0.040621	-0.146803	0.388747	-0.110375	0	0	0.204018	-0.0244611	0.120845	-0.0711652	-0.24723	0.295441	0.524194	1.5708	0	0	-0.172541	-0.313229	0.548975	0.57399	0.983347	0	0
0.06	-3.08171	1.26008	1.45026	0.73249	1.92797	1.01458	0.252757	-0.0437788	0.00858836	0.844572	-0.628053	0	0	0.564262	-0.0424244	-0.157109	0.384435	-0.104522	0	0	0.208817	-0.0218023	0.115165	-0.0679241	-0.244097	0.316747	0.508417	1.5708	0	0	-0.174271	-0.313127	0.544115	0.573637	0.989933	0	0
0.07	-3.07614	1.266	1.44031	0.733135	1.9155	1.01712	0.26998	-0.0443521	0.0150746	0.874491	-0.58851	0	0	0.54114	-0.044691	-0.164476	0.378595	-0.10029	0	0	0.20348	-0.0182609	0.106991	-0.060176	-0.242209	0.341842	0.492333	1.5708	0	0	-0.173045	-0.311038	0.534661	0.572013	0.998623	0	0
0.08	-3.05956	1.27992	1.4255	0.734294	1.9038	1.02049	0.277753	-0.044461	0.0145012	0.900557	-0.543142	0	0	0.510892	-0.0461096	-0.164628	0.372614	-0.0984565	0	0	0.185704	-0.0139384	0.0942073	-0.051027	-0.241526	0.361694	0.481204	1.5708	0	0	-0.166116	-0.308565	0.525004	0.570001	1.00723	0	0
0.09	-3.04596	1.28132	1.4173	0.735432	1.89141	1.0228	0.297117	-0.0450262	0.00835169	0.922484	-0.496063	0	0	0.494594	-0.047429	-0.16949	0.365919	-0.0994366	0	0	0.186943	-0.00963206	0.0780561	-0.0499351	-0.239343	0.375738	0.472052	1.5708	0	0	-0.165571	-0.307556	0.514675	0.568728	1.01478	0	0
0.1	-3.03699	1.28141	1.40988	0.736303	1.87875	1.02508	0.317994	-0.0460679	0.00471474	0.939568	-0.451637	0	0	0.478362	-0.0491146	-0.177017	0.359541	-0.10009	0	0	0.191738	-0.00522092	0.0651548	-0.0513431	-0.237787	0.388148	0.464793	1.5708	0	0	-0.167007	-0.306549	0.504609	0.567907	1.02017	0	0
0.11	-3.02542	1.28586	1.39888	0.73726	1.86635	1.02787	0.333859	-0.0471074	0.000517277	0.950224	-0.41613	0	0	0.456343	-0.0508123	-0.183384	0.3527	-0.100722	0	0	0.190649	-0.000277431	0.0541394	-0.0530464	-0.237115	0.394132	0.460388	1.5708	0	0	-0.165065	-0.30521	0.497971	0.566073	1.02342	0	0
0.12	-3.00964	1.29311	1.38358	0.738191	1.85425	1.03097	0.345934	-0.0471946	-0.00365013	0.954741	-0.384038	0	0	0.430948	-0.0530454	-0.189082	0.345705	-0.101784	0	0	0.185164	0.00534533	0.0433573	-0.0537769	-0.236774	0.398186	0.457243	1.5708	0	0	-0.160796	-0.303687	0.49203	0.563487	1.02552	0	0
0.13	-2.9928	1.29888	1.36711	0.739071	1.84222	1.03394	0.358769	-0.0465095	-0.00777708	0.953782	-0.358855	0	0	0.406711	-0.0556595	-0.194993	0.33755	-0.103472	0	0	0.181836	0.0113884	0.0331361	-0.0562377	-0.236177	0.397214	0.455398	1.5708	0	0	-0.156506	-0.302516	0.487298	0.561059	1.02626	0	0
0.14	-2.9774	1.30228	1.35331	0.739934	1.83012	1.03671	0.372968	-0.0460795	-0.0137208	0.947959	-0.333767	0	0	0.384984	-0.0577747	-0.200291	0.329644	-0.105986	0	0	0.18189	0.016987	0.0216817	-0.0606716	-0.235112	0.39214	0.454909	1.5708	0	0	-0.153277	-0.301817	0.482033	0.55924	1.02656	0	0
0.15	-2.96058	1.30384	1.33838	0.740748	1.81803	1.0392	0.388072	-0.0447076	-0.0206376	0.937891	-0.30884	0	0	0.364533	-0.0605224	-0.20352	0.317639	-0.110151	0	0	0.184015	0.02337	0.00950731	-0.0663141	-0.234037	0.38306	0.455726	1.5708	0	0	-0.15095	-0.301367	0.476158	0.558586	1.02745	0	0
0.16	-2.94578	1.30441	1.32548	0.741513	1.8061	1.04154	0.403768	-0.0433577	-0.0280601	0.923752	-0.283767	0	0	0.345171	-0.0630208	-0.207489	0.306154	-0.114969	0	0	0.18679	0.0292274	-0.00236651	-0.0719829	-0.232488	0.372025	0.456493	1.5708	0	0	-0.148254	-0.301247	0.469982	0.558536	1.02929	0	0
0.17	-2.93201	1.30456	1.31359	0.74221	1.79431	1.04372	0.41931	-0.0417753	-0.0354852	0.906358	-0.257992	0	0	0.326354	-0.0654457	-0.212636	0.294709	-0.120216	0	0	0.189404	0.0347802	-0.0137608	-0.0776036	-0.230669	0.359455	0.457589	1.5708	0	0	-0.145304	-0.301781	0.463679	0.560011	1.03286	0	0
0.18	-2.91866	1.30467	1.30353	0.742941	1.78257	1.04575	0.43387	-0.0402096	-0.0427601	0.88593	-0.232061	0	0	0.307482	-0.0675662	-0.218248	0.282617	-0.126329	0	0	0.191609	0.0397834	-0.0260193	-0.0832936	-0.228482	0.345307	0.458831	1.5708	0	0	-0.142095	-0.302968	0.457022	0.56275	1.03824	0	0
0.19	-2.90707	1.30399	1.29503	0.743532	1.77095	1.04753	0.448628	-0.0381609	-0.0495983	0.861614	-0.208382	0	0	0.289651	-0.0696278	-0.22449	0.271033	-0.132421	0	0	0.19446	0.0444821	-0.0375316	-0.0890693	-0.225254	0.326369	0.459516	1.5708	0	0	-0.139287	-0.30474	0.449056	0.567277	1.04484	0	0
0.2	-2.89589	1.30279	1.28621	0.743945	1.75946	1.04907	0.463214	-0.035059	-0.0554054	0.833255	-0.187528	0	0	0.272463	-0.0717683	-0.229788	0.259855	-0.138081	0	0	0.197439	0.049354	-0.0473222	-0.095146	-0.221472	0.304728	0.460531	1.5708	0	0	-0.136471	-0.306923	0.44029	0.573566	1.05274	0	0
0.21	-2.88852	1.30004	1.28166	0.744351	1.74813	1.05027	0.478951	-0.0324497	-0.0619651	0.801446	-0.168309	0	0	0.257142	-0.0730485	-0.233544	0.24801	-0.14403	0	0	0.201843	0.0535922	-0.0566299	-0.101057	-0.217477	0.283174	0.461194	1.5708	0	0	-0.133406	-0.309342	0.431149	0.580573	1.06206	0	0
0.22	-2.88501	1.29708	1.28142	0.744735	1.73699	1.05123	0.494353	-0.0307965	-0.0696005	0.765871	-0.152665	0	0	0.24226	-0.0732251	-0.235355	0.235386	-0.150436	0	0	0.205831	0.0567378	-0.0658505	-0.105984	-0.213583	0.263119	0.461571	1.5708	0	0	-0.129786	-0.311992	0.421368	0.588312	1.07248	0	0
0.23	-2.88219	1.29421	1.28212	0.745023	1.7259	1.05193	0.508553	-0.0291145	-0.0770699	0.726721	-0.141292	0	0	0.227858	-0.0736086	-0.23854	0.223783	-0.156239	0	0	0.209375	0.0595341	-0.0747262	-0.110338	-0.210106	0.245343	0.461849	1.57009	0	0	-0.126035	-0.31502	0.41111	0.597212	1.08416	0	0
0.24	-2.87746	1.29194	1.28166	0.745236	1.7147	1.05241	0.520507	-0.0268605	-0.0828885	0.68484	-0.133894	0	0	0.21277	-0.0747384	-0.242634	0.21259	-0.160649	0	0	0.212571	0.0620828	-0.0835924	-0.114065	-0.206814	0.231386	0.460647	1.56638	0	0	-0.122063	-0.318864	0.402653	0.606668	1.09455	0	0
0.25	-2.99199	1.28667	1.39643	0.743804	1.70107	1.05602	0.537828	-0.0535321	-0.0805933	0.629635	-0.135794	0	0	0.193417	-0.0426778	-0.239809	0.16442	-0.204098	0	0	0.226327	0.0262392	-0.068278	-0.109278	-0.17834	0.19606	0.409807	1.5614	0	0	-0.10155	-0.322226	0.408085	0.582431	1.11736	0	0
0.26	-2.87097	1.28806	1.28188	0.745311	1.69231	1.05259	0.540292	-0.0214799	-0.0958054	0.591691	-0.129822	0	0	0.182797	-0.0770082	-0.252217	0.192526	-0.176235	0	0	0.219445	0.0657626	-0.100803	-0.117397	-0.197312	0.200988	0.450542	1.56834	0	0	-0.118239	-0.325789	0.37603	0.6287	1.11983	0	0
